HIERARCHY
ROOT pelvis
{
  OFFSET 0 100 0
  CHANNELS 6 Xposition Yposition Zposition Zrotation Xrotation Yrotation
  JOINT pelvis_right_femur
  {
    OFFSET -10.78128 -3.44521 -0.5502486
    CHANNELS 3 Zrotation Xrotation Yrotation
    JOINT right_femur_tibia
    {
      OFFSET -0.8047443 -44.0398 -0.1307829
      CHANNELS 3 Zrotation Xrotation Yrotation
      JOINT right_tibia_foot
      {
        OFFSET 3.006224 -47.83518 -5
        CHANNELS 3 Zrotation Xrotation Yrotation
        End Site
        {
          OFFSET 0 -5 15
        }
      }
    }
  }
  JOINT pelvis_left_femur
  {
    OFFSET 10.78128 -3.44521 -0.5502486
    CHANNELS 3 Zrotation Xrotation Yrotation
    JOINT left_femur_tibia
    {
      OFFSET 0.8047443 -44.0398 -0.1307829
      CHANNELS 3 Zrotation Xrotation Yrotation
      JOINT left_tibia_foot
      {
        OFFSET -4.370144 -48.10324 -4.275266
        CHANNELS 3 Zrotation Xrotation Yrotation
        End Site
        {
          OFFSET 0 -5 15
        }
      }
    }
  }
  JOINT pelvis_spine1
  {
    OFFSET 0 6.468898 -3.129235
    CHANNELS 3 Zrotation Xrotation Yrotation
    JOINT spine1
    {
      OFFSET 0 23.15396 4.99043
      CHANNELS 3 Zrotation Xrotation Yrotation
      JOINT spine2
      {
        OFFSET 0 20.79997 -5.064912
        CHANNELS 3 Zrotation Xrotation Yrotation
        JOINT neck
        {
          OFFSET 0 14.38658 9.616178
          CHANNELS 3 Zrotation Xrotation Yrotation
          End Site
          {
            OFFSET 0 20 0
          }
        }
      }
      JOINT right_manubrium
      {
        OFFSET -5.722621 16.35077 3.967754
        CHANNELS 3 Zrotation Xrotation Yrotation
        JOINT right_clavicle
        {
          OFFSET -13.16364 1.694482 -4.693211
          CHANNELS 3 Zrotation Xrotation Yrotation
          JOINT right_humerus
          {
            OFFSET -28.5034 -0.3100689 -2.792744
            CHANNELS 3 Zrotation Xrotation Yrotation
            JOINT right_radius
            {
              OFFSET -25.15693 0.02248979 -1.271978
              CHANNELS 3 Zrotation Xrotation Yrotation
              End Site
              {
                OFFSET -15 0 0
              }
            }
          }
        }
      }
      JOINT left_manubrium
      {
        OFFSET 5.722621 16.35077 3.967754
        CHANNELS 3 Zrotation Xrotation Yrotation
        JOINT left_clavicle
        {
          OFFSET 13.16364 1.694482 -4.693211
          CHANNELS 3 Zrotation Xrotation Yrotation
          JOINT left_humerus
          {
            OFFSET 29.39168 -1.063119 -2.237045
            CHANNELS 3 Zrotation Xrotation Yrotation
            JOINT left_radius
            {
              OFFSET 24.59957 -0.9528479 0.9047498
              CHANNELS 3 Zrotation Xrotation Yrotation
              End Site
              {
                OFFSET 15 -0 -0
              }
            }
          }
        }
      }
    }
  }
}
MOTION
Frames: 23
Frame Time: 0.0416666666667
1521.297 105.6085 2512.037 3.983862 -1.268127 58.841 0.7001339 -26.72185 -1.08733 -0 16.11923 -0 -1.951715 0.7650097 -6.535803 -5.141442 15.08216 -7.854729 -0 12.99501 -0 -4.013146 -20.51576 12.81391 -2.615685 0.1068897 2.235295 1.516198 9.890701 -8.534746 1.086237 21.91696 7.299944 2.808621 -18.87565 7.858075 1.894313 -15.24786 10.70005 91.62569 27.9133 -23.34809 -0 0 7.479094 -22.96279 13.62276 11.39775 6.688018 -23.90107 -5.492045 -80.92853 23.04336 4.937436 0 0 -31.20746 2.156221 9.222259 10.70937
1526.398 104.3371 2515.381 3.280648 -1.263031 59.26687 1.550185 -28.47791 -1.016726 -0 11.26377 -0 -2.482873 -0.1195846 -6.547409 -4.78579 16.32706 -7.695544 -0 16.43931 -0 -4.943636 -20.05782 12.01621 -2.168592 0.1712969 2.042492 1.797444 9.527225 -8.728844 1.152746 21.84965 7.214364 2.802027 -19.142 7.868304 1.784826 -14.65082 10.62585 91.98455 28.02986 -24.17447 -0 0 6.537124 -21.99027 13.6168 10.74173 6.904278 -24.15743 -5.22779 -80.66436 22.92575 3.936769 0 0 -32.17357 2.625451 9.403421 10.09066
1531.616 103.2834 2518.889 2.660594 -1.369242 59.51902 2.626995 -28.50845 -0.4001589 -0 8.879568 -0 -3.127507 -0.8604514 -6.499767 -4.409814 16.47155 -7.782017 -0 22.00904 -0 -6.048276 -18.70771 11.3753 -1.673996 0.2262022 2.009137 2.008272 9.222343 -8.743769 1.227893 21.81642 7.120303 2.835912 -19.51153 7.863036 1.965786 -14.14046 10.62417 92.02806 28.51145 -24.55055 -0 0 5.904615 -20.8436 13.62171 10.12921 6.766692 -23.96073 -4.895941 -81.01291 23.34268 4.096849 0 0 -31.88899 2.640359 9.587919 10.22942
1536.95 102.6668 2522.525 2.246893 -1.59086 59.59163 3.789381 -26.69055 0.572115 -0 8.754851 -0 -3.839437 -1.420142 -6.369284 -4.026685 15.33483 -7.963031 -0 29.42262 -0 -7.177421 -16.54776 11.00794 -1.162678 0.283059 2.168159 2.118162 9.044701 -8.562391 1.309965 21.83599 7.001816 2.900056 -19.90052 7.817513 2.348049 -13.78604 10.70515 91.76277 29.1956 -24.40891 -0 0 5.620414 -19.72529 13.62717 9.628107 6.315209 -23.39178 -4.553219 -81.93016 24.06692 5.332724 0 0 -30.45796 2.320332 9.748089 10.92067
1542.374 102.6087 2526.241 2.236224 -1.935475 59.47923 4.816379 -23.09033 1.614813 -0 10.22886 -0 -4.533872 -1.844137 -6.162392 -3.656095 12.80346 -7.996303 -0 38.07341 -0 -8.10918 -13.81527 11.05019 -0.6939846 0.3649493 2.550983 2.095993 9.096626 -8.190372 1.395394 21.94001 6.826273 2.966771 -20.15341 7.688617 2.78185 -13.67721 10.88901 91.2396 29.80062 -23.73135 -0 0 5.696197 -18.92844 13.63913 9.315961 5.648554 -22.6359 -4.298029 -83.26494 24.7219 7.345861 0 0 -28.22628 1.867638 9.842677 11.8072
1547.808 103.0958 2529.967 2.793417 -2.392709 59.17842 5.519258 -17.97835 2.509005 -0 12.32922 -0 -5.076885 -2.375637 -5.923826 -3.281888 8.85767 -7.675261 -0 46.87896 -0 -8.623214 -10.89302 11.61954 -0.3502552 0.4956264 3.179574 1.926804 9.448103 -7.657527 1.47858 22.1513 6.560068 2.995635 -20.10626 7.439609 3.121435 -13.91253 11.1895 90.50091 30.06706 -22.53874 -0 0 6.180832 -18.70449 13.67837 9.259165 4.902474 -21.89577 -4.216925 -84.77719 24.99855 9.725566 0 0 -25.67628 1.442125 9.835965 12.57286
1553.116 103.9763 2533.609 3.866775 -2.900992 58.69169 5.828657 -11.7836 3.22554 -0 14.04512 -0 -5.291654 -3.50079 -5.704183 -2.82522 3.588691 -6.97996 -0 54.24524 -0 -8.624977 -8.225429 12.7572 -0.2019451 0.679202 4.052732 1.630984 10.03187 -7.005487 1.555177 22.44531 6.199086 2.950534 -19.70453 7.085562 3.302333 -14.56556 11.57945 89.49066 29.94343 -20.83283 -0 0 7.234776 -19.08636 13.75577 9.487499 4.213041 -21.24817 -4.28584 -86.28626 24.88554 12.19181 0 0 -23.19924 1.030788 9.701345 13.1653
1558.175 104.9798 2537.081 5.112826 -3.339404 58.02916 5.772324 -5.227969 3.839276 -0 14.59387 -0 -5.016572 -5.654326 -5.509073 -2.209454 -2.558037 -6.09562 -0 58.29754 -0 -8.209736 -6.263653 14.34329 -0.2676311 0.8881382 5.09233 1.267773 10.60608 -6.288846 1.629499 22.74094 5.79174 2.81822 -19.056 6.720941 3.332285 -15.59783 11.95957 88.10544 29.57895 -18.62989 -0 0 9.008759 -19.85859 13.83593 9.969937 3.713489 -20.61946 -4.345928 -87.71329 24.62295 14.59454 0 0 -21.0121 0.5240925 9.430956 13.72089
1562.985 105.7559 2540.357 6.097791 -3.577751 57.21864 5.405076 0.5428889 4.289461 -0 13.54578 -0 -4.191595 -8.701745 -5.269581 -1.473632 -8.556223 -5.243309 -0 57.46054 -0 -7.552583 -5.449647 16.06896 -0.5085818 1.07765 6.10231 0.9022313 10.88081 -5.581748 1.719972 22.95275 5.422254 2.612844 -18.32713 6.48213 3.170677 -16.80051 12.17373 86.41688 29.05364 -16.09466 -0 0 11.36902 -20.78754 13.8212 10.6212 3.561216 -19.94924 -4.236639 -88.88165 24.3471 16.57248 0 0 -19.31366 0.009528486 9.06026 14.14141
1567.694 105.9911 2543.489 6.570316 -3.55211 56.32199 4.813058 4.730329 4.412446 -0 11.24083 -0 -2.891426 -11.9154 -4.858959 -0.7542268 -13.4929 -4.548389 -0 51.59136 -0 -6.801051 -5.893176 17.60123 -0.8438358 1.207788 6.902781 0.5580488 10.72281 -4.931616 1.839031 23.03201 5.16827 2.373918 -17.66261 6.457314 2.753291 -17.94156 12.1143 84.65861 28.32849 -13.45938 -0 0 13.98684 -21.79909 13.6218 11.37063 3.821882 -19.22937 -3.911527 -89.62334 23.98791 17.82923 0 0 -18.13605 -0.2789525 8.639004 14.16065
1572.514 105.5864 2546.548 6.496598 -3.289447 55.42784 4.119776 7.750799 4.24094 -0 9.122062 -0 -1.341811 -14.4606 -4.171754 -0.1539432 -17.43111 -4.069802 -0 42.65642 -0 -6.143534 -7.026405 18.7499 -1.166603 1.245931 7.491587 0.2235818 10.2353 -4.330326 1.953921 22.94805 5.084625 2.169348 -17.24547 6.623177 2.194393 -18.96136 11.83318 82.96385 27.54445 -10.831 -0 0 16.66592 -22.87518 13.26691 12.22938 4.295908 -18.38779 -3.41282 -90.17323 23.56599 18.84379 0 0 -17.04361 -0.3888958 8.167081 13.9738
1577.604 104.7045 2549.577 5.984005 -2.886346 54.62162 3.43878 10.61018 3.993906 -0 8.797161 -0 0.04099763 -15.74199 -3.234928 0.299002 -20.92218 -3.846155 -0 33.58841 -0 -5.796795 -7.977647 19.45537 -1.387892 1.175813 7.95005 -0.1013945 9.651433 -3.765524 2.003106 22.70892 5.187978 2.079502 -17.24723 6.865629 1.755565 -19.90688 11.49606 81.35874 27.03747 -8.265022 -0 0 19.25117 -23.9392 12.86631 13.23825 4.642638 -17.36742 -2.834778 -90.98429 23.26994 20.46035 0 0 -15.46068 -0.6200191 7.662066 14.14651
1583.022 103.6217 2552.603 5.286983 -2.492972 53.9628 2.828069 13.64564 3.797799 -0 10.76603 -0 0.811637 -15.59071 -2.252973 0.5633713 -23.93493 -3.919672 -0 26.42555 -0 -5.810455 -8.30888 19.77472 -1.490293 1.023611 8.260371 -0.3992037 9.157175 -3.251339 1.981896 22.42521 5.412282 2.134353 -17.60935 7.077309 1.570144 -20.71833 11.21942 79.97685 26.94163 -5.935981 -0 0 21.38954 -24.85571 12.46397 14.30059 4.699684 -16.27109 -2.304618 -92.15378 23.17513 22.75372 0 0 -13.24559 -1.032613 7.268526 14.79646
1588.747 102.5678 2555.661 4.749562 -2.253214 53.48623 2.279582 16.22776 3.626026 -0 14.57103 -0 0.9268119 -14.24572 -1.499112 0.5166234 -25.77356 -4.307398 -0 21.7557 -0 -6.002986 -8.236181 19.83674 -1.533796 0.854914 8.33698 -0.6678594 8.817675 -2.818411 1.962113 22.25232 5.644005 2.273479 -18.02026 7.246459 1.547691 -21.19852 11.00047 79.09119 27.00738 -4.155852 -0 0 22.68883 -25.53194 12.04966 15.15843 4.56866 -15.30142 -1.939548 -93.26419 23.13999 24.84438 0 0 -10.83263 -1.342494 7.119355 15.41695
1594.721 101.7192 2558.775 4.602294 -2.208307 53.2248 1.742772 17.54503 3.47711 -0 19.87736 -0 0.822944 -12.0089 -1.168219 0.03735683 -25.91312 -4.937736 -0 19.50913 -0 -6.174968 -8.177064 19.69962 -1.602957 0.7283756 8.178666 -0.9228501 8.650071 -2.517022 1.992155 22.24041 5.842339 2.412446 -18.21777 7.427369 1.591866 -21.20587 10.8132 78.88322 26.97196 -3.23021 -0 0 23.02658 -26.02685 11.69938 15.63417 4.386815 -14.60472 -1.809123 -93.82576 23.08028 25.90111 0 0 -8.880003 -1.38546 7.110176 15.6698
1600.862 101.2476 2561.933 4.892767 -2.318651 53.23148 1.160859 17.20007 3.428416 -0 26.80699 -0 0.9242344 -9.048992 -1.373074 -0.8874013 -24.27908 -5.69424 -0 19.40586 -0 -6.232946 -8.347508 19.31429 -1.753613 0.6489915 7.851484 -1.165454 8.701665 -2.422922 2.046147 22.32119 6.036733 2.503292 -18.15138 7.645988 1.729301 -20.782 10.68074 79.36358 26.81634 -3.341012 -0 0 22.54935 -26.45577 11.58029 15.74629 4.164829 -14.25132 -1.955915 -93.67515 23.07467 25.81034 0 0 -7.823481 -1.319037 7.030623 15.7563
1607.045 101.3059 2565.063 5.554119 -2.52788 53.57009 0.516067 15.16824 3.564899 -0 35.33057 -0 1.343349 -5.620499 -2.180538 -2.141515 -21.00392 -6.492985 -0 20.79634 -0 -6.141965 -8.776809 18.62701 -2.004305 0.5746644 7.402369 -1.359773 9.026411 -2.620306 2.063939 22.39662 6.243815 2.52431 -17.89355 7.86807 2.040992 -20.10694 10.64732 80.44632 26.67817 -4.528223 -0 0 21.52111 -26.82387 11.85333 15.60571 3.836107 -14.28328 -2.406661 -92.94256 23.28259 24.96484 0 0 -7.779255 -1.448117 6.798733 16.12506
1613.097 101.9523 2568.052 6.409955 -2.742548 54.27219 -0.1346603 11.60878 3.906002 -0 44.44628 -0 1.980627 -2.28773 -3.544831 -3.503543 -16.40108 -7.278017 -0 22.59063 -0 -5.906484 -9.487857 17.68107 -2.349003 0.4689163 6.856336 -1.43111 9.592417 -3.161291 1.993976 22.39508 6.456202 2.47461 -17.56603 8.036753 2.576251 -19.38479 10.73232 81.94132 26.75302 -6.667673 -0 0 20.21311 -27.01392 12.57211 15.32951 3.379892 -14.71316 -3.119238 -91.85539 23.89443 23.8016 0 0 -8.74707 -2.030359 6.456209 17.14304
1618.851 103.0584 2570.8 7.171825 -2.828299 55.29035 -0.6573031 6.818934 4.323725 -0 51.9099 -0 2.655089 0.175315 -5.205113 -4.696722 -11.04764 -7.979915 -0 23.4775 -0 -5.582144 -10.58016 16.63998 -2.747391 0.3412612 6.242764 -1.30675 10.21564 -4.002106 1.831993 22.29827 6.657781 2.376512 -17.29339 8.125879 3.254263 -18.74116 10.89003 83.56638 27.14676 -9.419998 -0 0 18.83608 -26.89476 13.58618 14.99085 2.922365 -15.491 -3.934714 -90.57464 24.95713 22.45075 0 0 -10.70455 -3.038516 6.094226 18.73268
1624.253 104.2994 2573.312 7.568946 -2.703392 56.50142 -0.9133092 1.176736 4.511974 -0 55.15462 -0 3.166767 1.276483 -6.744678 -5.492666 -5.574759 -8.472007 -0 22.538 -0 -5.258425 -12.15315 15.6743 -3.109695 0.2401113 5.585338 -0.9867295 10.63448 -4.983184 1.642772 22.15004 6.81771 2.257938 -17.11929 8.161908 3.803499 -18.16399 11.00454 85.10378 27.66969 -12.31334 -0 0 17.45533 -26.46794 14.56046 14.58431 2.726895 -16.52766 -4.643129 -89.06306 26.12187 20.59222 0 0 -13.5498 -3.997904 5.854412 20.14116
1629.408 105.2872 2575.709 7.532655 -2.417101 57.77109 -0.8843344 -4.965989 4.178088 -0 53.07756 -0 3.381043 1.193143 -7.866654 -5.836586 -0.3107245 -8.620916 -0 19.87876 -0 -5.021965 -14.15616 14.82207 -3.339028 0.2082369 4.883726 -0.5538036 10.70369 -5.923509 1.513902 22.02288 6.899427 2.134473 -16.98196 8.189405 3.931626 -17.54581 10.97 86.51863 27.93111 -14.9919 -0 0 15.97499 -25.88733 15.1996 14.06548 2.998025 -17.74886 -5.129635 -87.16936 26.80174 17.78622 0 0 -17.05389 -4.307054 5.892627 20.45099
1634.485 105.7454 2578.143 7.190517 -2.091423 59.0023 -0.6807859 -11.2001 3.327304 -0 46.7745 -0 3.276177 0.4559038 -8.553499 -5.845341 4.646247 -8.438944 -0 16.50636 -0 -4.937614 -16.3257 14.03708 -3.398539 0.2511323 4.145677 -0.09890705 10.46754 -6.721796 1.485173 21.96562 6.888867 2.013909 -16.81538 8.227161 3.598006 -16.81134 10.78074 87.83955 27.74667 -17.31557 -0 0 14.31562 -25.27623 15.44095 13.4208 3.693251 -19.05903 -5.401261 -84.98271 26.71198 14.09577 0 0 -20.82635 -3.783756 6.237141 19.42984
1639.609 105.58 2580.72 6.708168 -1.825502 60.13189 -0.4055739 -17.03114 2.230131 -0 38.37443 -0 2.892799 -0.5404199 -8.942496 -5.671139 9.185201 -8.090083 -0 13.59739 -0 -5.049362 -18.30728 13.29518 -3.308423 0.3481806 3.407774 0.3295339 10.04804 -7.351926 1.546158 21.99041 6.796339 1.903767 -16.61662 8.269732 2.996742 -15.96485 10.50662 89.04024 27.25203 -19.25823 -0 0 12.52668 -24.61865 15.39053 12.66915 4.595134 -20.31317 -5.50211 -82.86031 26.03548 10.08547 0 0 -24.39502 -2.684605 6.779445 17.53752
